<?xml version="1.0" encoding="utf-8"?>
<!-- Generator: Adobe Illustrator 23.1.0, SVG Export Plug-In . SVG Version: 6.00 Build 0)  -->
<svg version="1.1" xmlns="http://www.w3.org/2000/svg" xmlns:xlink="http://www.w3.org/1999/xlink" x="0px" y="0px"
	 viewBox="0 0 813.2 580" style="enable-background:new 0 0 813.2 580;" xml:space="preserve">
<style type="text/css">
	.st0{fill:#8E7C54;stroke:#473310;stroke-miterlimit:10;}
	.st1{fill:none;stroke:#473310;stroke-miterlimit:10;}
	.st2{fill:#264C7B;}
	.st3{fill:none;stroke:#264C7B;stroke-width:21;stroke-miterlimit:10;}
	.st4{fill:none;stroke:#93BFEC;stroke-width:22;stroke-miterlimit:10;}
	.st5{fill:#93BFEC;}
</style>
<g id="Layer_4">
	<polygon class="st0" points="7.47,461.03 299.72,451.93 339.41,569.86 61.61,569.86 	"/>
	<polygon class="st1" points="26.46,498.42 310.15,482.91 325.64,528.95 46.81,540.11 	"/>
</g>
<g id="Layer_3">
	<g>
		<path class="st2" d="M297.95,412.68c-1.78,3.13-4.29,5.81-7.54,8.05c-3.25,2.24-6.96,3.36-11.13,3.36c-4.11,0-7.15-1.13-9.11-3.4
			c-1.96-2.27-2.94-5.09-2.94-8.46c0-2.94,0.54-6.59,1.61-10.95c1.07-4.35,2.59-8.25,4.55-11.68c0.12-0.24,0.63-1.15,1.52-2.71
			c0.89-1.56,1.89-2.76,2.99-3.59c1.1-0.83,2.27-1.24,3.5-1.24c0.55,0,1.06,0.14,1.52,0.41c0.46,0.28,0.69,0.63,0.69,1.06
			c0,0.12-0.17,0.41-0.51,0.87c-0.34,0.46-0.6,0.81-0.78,1.06c-2.08,2.52-3.77,5-5.06,7.45c-1.72,3.13-3.05,6.23-4,9.29
			c-0.95,3.07-1.43,6.41-1.43,10.03c0,4.85,2.94,7.27,8.83,7.27c2.76,0,5.32-0.8,7.68-2.39c2.36-1.59,4.25-3.54,5.66-5.84
			c1.41-2.3,2.12-4.4,2.12-6.3c0-2.15-0.71-4.02-2.12-5.61c-1.41-1.59-3.34-3.28-5.8-5.06c-1.6-1.16-2.76-2.12-3.5-2.85
			c-0.74-0.74-1.1-1.35-1.1-1.84c0-0.74,0.52-1.33,1.56-1.79c1.04-0.46,2.27-0.69,3.68-0.69c0.8,0,1.32,0.05,1.56,0.14
			c0.24,0.09,0.37,0.26,0.37,0.51c0,0.12-0.11,0.32-0.32,0.6c-0.22,0.28-0.32,0.51-0.32,0.69c0,0.18,0.61,0.8,1.84,1.84
			c2.45,2.02,4.51,4.08,6.16,6.16c1.66,2.09,2.48,4.54,2.48,7.36C300.62,406.79,299.73,409.55,297.95,412.68z"/>
		<path class="st2" d="M362.4,404.91c-1.63,5.67-3.51,10.27-5.66,13.8c-2.15,3.53-3.86,5.29-5.15,5.29c-1.84,0-3.59-1.78-5.24-5.34
			c-1.66-3.56-3.02-7.85-4.09-12.88c-1.07-5.03-1.73-9.6-1.98-13.71c-1.66,3.19-3.44,6.79-5.34,10.81c-1.9,4.02-3.4,7.44-4.51,10.26
			c-1.66,4.36-3.13,8.59-4.42,12.7c-0.06,0.12-0.15,0.41-0.28,0.87c-0.12,0.46-0.29,0.78-0.51,0.97c-0.21,0.18-0.54,0.28-0.97,0.28
			c-0.92,0-1.61-0.2-2.07-0.6c-0.46-0.4-0.87-1.03-1.24-1.89l-0.74-3.77c-1.1-6.01-2.27-11.71-3.5-17.11
			c-1.35-5.58-2.73-10.18-4.14-13.8c-1.41-3.62-2.48-5.43-3.22-5.43c-0.25,0-0.61,0.2-1.1,0.6c-0.49,0.4-0.95,0.72-1.38,0.97
			c-0.43,0.25-0.8,0.31-1.1,0.18c-0.74-0.37-1.1-0.8-1.1-1.29c0-0.49,0.37-1.26,1.1-2.3c0.74-1.04,1.58-1.98,2.53-2.81
			c0.95-0.83,1.79-1.24,2.53-1.24c0.55,0,1.03,0.14,1.43,0.41c0.4,0.28,0.81,0.69,1.24,1.24c0.8,1.04,1.9,3.48,3.31,7.31
			c1.41,3.83,2.7,8.48,3.86,13.94l3.77,16.1c2.82-7.85,5.41-14.37,7.77-19.55c2.36-5.18,5.04-10.56,8.05-16.15
			c1.17-2.08,2.39-3.13,3.68-3.13c0.86,0,1.56,0.31,2.12,0.92c0.55,0.61,0.83,1.1,0.83,1.47c0,0.25-0.15,0.52-0.46,0.83
			c-0.31,0.31-0.55,0.61-0.74,0.92c-0.49,0.68-0.87,1.44-1.15,2.3c-0.28,0.86-0.41,2.18-0.41,3.96c0,2.15,0.38,5.51,1.15,10.07
			c0.77,4.57,1.81,8.66,3.13,12.28c1.32,3.62,2.74,5.43,4.28,5.43c0.92,0,2.05-1.53,3.4-4.6c1.35-3.07,2.53-6.85,3.54-11.36
			s1.52-8.85,1.52-13.02c0-0.86-0.43-1.84-1.29-2.94c-0.68-0.92-1.01-1.59-1.01-2.02c0-0.37,0.29-0.9,0.87-1.61
			c0.58-0.7,1.18-1.06,1.79-1.06c0.8,0,1.55,0.64,2.25,1.93c0.7,1.29,1.06,2.58,1.06,3.86C364.84,393.27,364.02,399.24,362.4,404.91
			z"/>
		<path class="st2" d="M404.3,425.98c-0.61,0.52-1.35,0.78-2.21,0.78c-0.61,0-1.14-0.14-1.56-0.41c-0.43-0.28-0.64-0.66-0.64-1.15
			c0-2.51,0.18-6.41,0.55-11.68c0.37-5.64,0.55-10.33,0.55-14.08c0-3.62-0.11-6.58-0.32-8.88c-0.22-2.3-0.72-3.45-1.52-3.45
			c-2.09,0-4.37,2.59-6.85,7.77c-2.48,5.18-5.32,12.01-8.51,20.47l-1.38,3.68c-0.25,0.61-0.66,1.1-1.24,1.47
			c-0.58,0.37-1.18,0.55-1.79,0.55c-0.74,0-1.23-0.06-1.47-0.18c-0.25-0.12-0.4-0.49-0.46-1.1l-0.74-7.54l-1.38-13.25
			c-0.43-5.27-0.95-9.87-1.56-13.8c-0.18-0.92-0.28-1.62-0.28-2.12c0-0.92,0.4-1.67,1.2-2.25c0.8-0.58,1.72-0.87,2.76-0.87
			c0.61,0,1.06,1.47,1.33,4.42c0.28,2.94,0.57,7.7,0.87,14.26l0.37,4.88c0.49,6.2,0.77,10.12,0.83,11.78
			c0.18-0.37,0.35-0.78,0.51-1.24c0.15-0.46,0.35-0.97,0.6-1.52c3.31-8.59,6.42-15.75,9.34-21.48c2.91-5.73,5.72-8.6,8.42-8.6
			c1.9,0,3.21,1.61,3.91,4.83s1.15,7.35,1.33,12.37c0.18,5.58,0.28,13.74,0.28,24.47C405.22,424.83,404.92,425.45,404.3,425.98z"/>
	</g>
	<polyline class="st3" points="151.03,151.61 148.44,34.19 330.06,282.42 169.04,506.35 163.01,381.18 	"/>
</g>
<g id="Layer_2">
	<polyline class="st4" points="216.95,252.07 187.47,143.21 79.93,147.55 210.15,333.7 110.37,425.55 95.63,296.29 	"/>
</g>
<g id="Layer_5">
	<g>
		<path class="st5" d="M254.3,308.45c-0.55,0.55-1.32,0.83-2.3,0.83c-1.23,0-2.35-1.29-3.36-3.86c-1.01-2.58-1.64-5.24-1.89-8
			c-0.25-2.64-0.43-7.97-0.55-16.01c-0.06-1.29-0.09-2.59-0.09-3.91c0-1.32-0.03-2.44-0.09-3.36c-1.78,4.23-4.2,9.05-7.27,14.44
			c-3.07,5.4-6.15,10.03-9.25,13.89c-3.1,3.86-5.63,5.8-7.59,5.8c-2.02,0-3.36-1.07-4-3.22c-0.64-2.15-0.97-5.55-0.97-10.21
			c0-4.35,0.57-9.29,1.7-14.81c1.13-5.52,2.44-9.72,3.91-12.6c0.61-1.29,1.13-2.16,1.56-2.62c0.43-0.46,0.92-0.69,1.47-0.69
			c1.53,0,2.3,0.31,2.3,0.92c0,0.31-0.31,1.01-0.92,2.12c-1.66,3.07-3.1,6.75-4.32,11.04c-1.23,4.29-1.84,10.06-1.84,17.3
			c0,4.85,0.67,7.27,2.02,7.27c1.59,0,3.76-1.76,6.49-5.29c2.73-3.53,5.44-7.74,8.14-12.65c2.7-4.91,4.75-9.17,6.16-12.79
			c0.49-1.23,1.04-3.13,1.66-5.7c0.18-1.04,0.37-1.79,0.55-2.25c0.18-0.46,0.4-0.69,0.64-0.69c0.67,0,1.41,0.28,2.21,0.83
			c0.8,0.55,1.2,1.14,1.2,1.75c0,2.94,0.11,7.99,0.32,15.13c0.21,7.15,0.47,12.1,0.78,14.86c0.24,2.39,0.69,4.26,1.33,5.61
			c0.64,1.35,1.27,2.41,1.89,3.17c0.61,0.77,0.92,1.24,0.92,1.43C255.13,307.13,254.86,307.9,254.3,308.45z"/>
		<path class="st5" d="M293.31,310.24c-0.61,0.52-1.35,0.78-2.21,0.78c-0.61,0-1.14-0.14-1.56-0.41c-0.43-0.28-0.64-0.66-0.64-1.15
			c0-2.51,0.18-6.41,0.55-11.68c0.37-5.64,0.55-10.33,0.55-14.08c0-3.62-0.11-6.58-0.32-8.88c-0.22-2.3-0.72-3.45-1.52-3.45
			c-2.09,0-4.37,2.59-6.85,7.77c-2.48,5.18-5.32,12.01-8.51,20.47l-1.38,3.68c-0.25,0.61-0.66,1.1-1.24,1.47
			c-0.58,0.37-1.18,0.55-1.79,0.55c-0.74,0-1.23-0.06-1.47-0.18c-0.25-0.12-0.4-0.49-0.46-1.1l-0.74-7.54l-1.38-13.25
			c-0.43-5.27-0.95-9.87-1.56-13.8c-0.18-0.92-0.28-1.62-0.28-2.12c0-0.92,0.4-1.67,1.2-2.25c0.8-0.58,1.72-0.87,2.76-0.87
			c0.61,0,1.06,1.47,1.33,4.42c0.28,2.94,0.57,7.7,0.87,14.26l0.37,4.88c0.49,6.19,0.77,10.12,0.83,11.78
			c0.18-0.37,0.35-0.78,0.51-1.24c0.15-0.46,0.35-0.97,0.6-1.52c3.31-8.59,6.42-15.75,9.34-21.48c2.91-5.73,5.72-8.6,8.42-8.6
			c1.9,0,3.21,1.61,3.91,4.83c0.71,3.22,1.15,7.35,1.33,12.37c0.18,5.58,0.28,13.74,0.28,24.47
			C294.23,309.09,293.92,309.72,293.31,310.24z"/>
	</g>
	<g>
		<path class="st2" d="M487.11,395.81c-0.2,0.46-0.47,0.8-0.82,1.03c-0.4,0.34-1.23,0.64-2.49,0.9c-1.26,0.26-2.12,0.42-2.58,0.47
			c0.46,2.18,0.69,3.24,0.69,3.18c0.4,1.43,0.83,3.41,1.29,5.93c1.03,5.79,2.09,10.72,3.18,14.79c0.29,1.32,0.43,2.09,0.43,2.32
			c0,0.57-0.23,1.06-0.69,1.46c-0.46,0.4-1,0.6-1.63,0.6c-0.57,0-1.09-0.3-1.55-0.9c-0.46-0.6-0.77-1.13-0.95-1.59
			c-0.52-1.95-0.99-4.13-1.42-6.54s-0.93-5.3-1.5-8.69c-0.23-1.49-0.6-3.34-1.12-5.55c-0.52-2.21-0.86-3.66-1.03-4.34
			c-3.38,0.46-9.2,1.38-17.46,2.75l-4.99,0.86l-1.81,5.07l-2.41,6.88c-2.01,6.25-3.44,11.06-4.3,14.45
			c-0.17,0.8-0.52,1.47-1.03,2.02c-0.52,0.54-1.15,0.82-1.89,0.82c-0.63,0-1.16-0.17-1.59-0.52c-0.43-0.34-0.64-0.83-0.64-1.46
			s0.34-1.96,1.03-4c0.69-2.04,1.09-3.25,1.2-3.65c0.23-0.57,0.69-1.89,1.38-3.96c0.75-2.24,1.71-4.95,2.88-8.13
			c1.17-3.18,1.96-5.29,2.37-6.32c-2.92,0.69-5.1,1.23-6.54,1.63c-2.18,0.57-3.53,0.86-4.04,0.86c-0.63,0-1.1-0.24-1.42-0.73
			c-0.32-0.49-0.47-1.02-0.47-1.59c0-0.69,0.17-1.16,0.52-1.42c0.34-0.26,0.92-0.5,1.72-0.73c2.18-0.52,4.49-1.03,6.92-1.55
			c2.44-0.52,4.11-0.86,5.03-1.03c0.57-1.66,1-3.07,1.29-4.21c0.23-0.74,0.53-1.68,0.9-2.79c0.37-1.12,0.79-2.51,1.25-4.17
			l1.29-4.39c2.18-7.68,3.44-12.07,3.78-13.16c0.29-0.8,0.56-1.43,0.82-1.89c0.26-0.46,0.62-0.69,1.08-0.69
			c1.15,0,2.18,0.17,3.1,0.52c0.11-0.11,0.3-0.36,0.56-0.73c0.26-0.37,0.54-0.63,0.86-0.77c0.31-0.14,0.73-0.21,1.25-0.21
			c1.03,0,2.22,1.18,3.57,3.53c1.35,2.35,2.65,5.13,3.91,8.34c0.74,1.89,1.69,4.72,2.84,8.47c1.15,3.76,1.89,6.24,2.24,7.44
			c0.86-0.11,1.59-0.27,2.19-0.47c0.6-0.2,0.99-0.33,1.16-0.39c0.29-0.11,0.6-0.31,0.95-0.6c0.34-0.29,0.66-0.5,0.95-0.65
			c0.29-0.14,0.6-0.13,0.95,0.04c0.74,0.34,1.12,1.06,1.12,2.15C487.41,394.92,487.31,395.36,487.11,395.81z M474.34,388.63
			c-0.92-3.3-1.78-5.98-2.58-8.04c-0.8-2.12-1.84-4.3-3.1-6.54c-1.26-2.24-2.32-3.64-3.18-4.21l-0.95,2.24
			c-1.09,2.18-1.92,4.16-2.49,5.93c-1.38,4.13-3.56,10.95-6.54,20.47l10.06-1.72l8.26-1.29l2.32-0.34
			C475.86,394.09,475.25,391.93,474.34,388.63z"/>
		<path class="st2" d="M548.47,422.26c-0.46,0.49-1.06,0.73-1.81,0.73c-1.03,0-1.55-0.52-1.55-1.55c0-11.58-0.37-20.45-1.12-26.62
			c-0.75-6.16-2.04-9.25-3.87-9.25c-3.1,0-7.63,10.81-13.59,32.42v0.09c0,0.69-0.23,1.28-0.69,1.76c-0.46,0.49-1.06,0.73-1.81,0.73
			c-1.03,0-1.55-0.52-1.55-1.55c0-2.29,0.11-5.85,0.34-10.66c0.23-5.39,0.34-9.63,0.34-12.73c0-4.3-0.13-7.35-0.39-9.16
			s-0.82-2.71-1.68-2.71c-1.95,0-4.42,3.57-7.4,10.71c-2.98,7.14-6.11,15.55-9.37,25.24l-0.77,2.24c-0.23,0.57-0.56,1.06-0.99,1.46
			c-0.43,0.4-0.9,0.6-1.42,0.6c-0.69,0-1.15-0.06-1.38-0.17c-0.23-0.12-0.37-0.46-0.43-1.03c-0.29-2.81-0.52-6.56-0.69-11.27
			c-0.12-1.2-0.23-3.18-0.34-5.93c-0.57-9.69-1.09-16.24-1.55-19.65c-0.46-3.41-0.69-5.32-0.69-5.72c0-0.46,0.23-1,0.69-1.63
			c0.46-0.63,0.89-0.95,1.29-0.95c0.92,0,1.66,0.66,2.24,1.98c0.29,0.63,0.6,3.15,0.95,7.57s0.63,9.89,0.86,16.43l0.43,13.16
			c3.15-9.75,6.42-18.59,9.8-26.53c3.38-7.94,6.48-11.91,9.29-11.91c1.89,0,3.18,1.38,3.87,4.13c0.69,2.75,1.03,6.74,1.03,11.95
			c0,2.75-0.06,6.71-0.17,11.87l-0.09,3.96c2.35-8.2,4.69-15.08,7.01-20.64c2.32-5.56,4.66-8.34,7.01-8.34
			c5.9,0,8.86,13.07,8.86,39.22C549.16,421.18,548.93,421.77,548.47,422.26z"/>
		<path class="st2" d="M592.42,400.72c0,1.03-0.76,3.3-2.28,6.79c-1.52,3.5-3.81,6.74-6.88,9.72c-3.07,2.98-6.84,4.47-11.31,4.47
			c-3.67,0-6.74-1.15-9.2-3.44c-2.47-2.29-3.7-5.82-3.7-10.58c0-4.47,1.03-8.9,3.1-13.29c2.06-4.39,4.76-7.97,8.08-10.75
			c3.33-2.78,6.76-4.17,10.32-4.17c2.12,0,3.91,0.47,5.38,1.42s2.19,2.31,2.19,4.08c0,2.01-1.13,3.96-3.4,5.85
			c-2.27,1.89-5.2,3.56-8.81,4.99c-3.61,1.43-7.34,2.47-11.18,3.1c-0.69,2.64-1.03,5.22-1.03,7.74c0,3.33,0.79,5.91,2.36,7.74
			c1.58,1.83,3.83,2.75,6.75,2.75c4.41,0,8-1.58,10.75-4.73c2.75-3.15,5.04-6.71,6.88-10.66c0.11-0.23,0.31-0.67,0.6-1.33
			c0.29-0.66,0.54-0.99,0.77-0.99C592.21,399.43,592.42,399.86,592.42,400.72z M582.83,383.77c-0.95-0.52-2.05-0.77-3.31-0.77
			c-2.18,0-4.27,0.72-6.28,2.15c-2.01,1.43-3.68,3.15-5.03,5.16c-1.35,2.01-2.22,3.78-2.62,5.33c2.64-0.29,5.42-1.03,8.34-2.24
			s5.38-2.52,7.35-3.96c1.98-1.43,2.97-2.61,2.97-3.53S583.77,384.29,582.83,383.77z"/>
		<path class="st2" d="M627.63,386.91c-0.72,0.66-1.33,0.99-1.85,0.99c-0.4,0-0.79-0.17-1.16-0.52c-0.37-0.34-0.79-0.83-1.25-1.46
			c-0.4-0.57-0.93-1.06-1.59-1.46c-0.66-0.4-1.33-0.6-2.02-0.6c-1.66,0-3.9,2.19-6.71,6.58c-2.81,4.39-5.56,9.9-8.26,16.55
			c0.06,1.32,0.16,2.98,0.3,4.99c0.14,2.01,0.24,3.5,0.3,4.47l0.26,3.44c0,0.8-0.17,1.5-0.52,2.11c-0.34,0.6-0.98,0.9-1.89,0.9
			c-0.98,0-1.61-1.3-1.89-3.91c-0.29-2.61-0.46-6.41-0.52-11.39c-0.06-1.26-0.1-3.07-0.13-5.42c-0.03-2.35-0.1-5.16-0.21-8.43
			c-0.17-4.93-0.26-8.46-0.26-10.58c0-1.32,0.8-1.98,2.41-1.98c0.97,0,1.56,0.42,1.76,1.25c0.2,0.83,0.3,2.42,0.3,4.77v13.67
			c1.72-4.41,3.58-8.23,5.59-11.44c2.01-3.21,3.97-5.66,5.89-7.35c1.92-1.69,3.63-2.54,5.12-2.54c1.26,0,2.46,0.29,3.61,0.86
			c1.15,0.57,2.06,1.3,2.75,2.19c0.69,0.89,1.03,1.74,1.03,2.54C628.71,385.67,628.35,386.25,627.63,386.91z"/>
		<path class="st2" d="M640.49,368.81c0,0-0.95,0-2.84,0c-0.98,0-1.96-0.4-2.97-1.2c-1-0.8-1.5-1.46-1.5-1.98
			c0-0.63,0.3-1.23,0.9-1.81c0.6-0.57,1.22-0.86,1.85-0.86c0.86,0.29,1.58,0.75,2.15,1.38c0.46,0.46,0.97,1.06,1.55,1.81
			c0.57,0.75,0.86,1.2,0.86,1.38C640.49,368.38,640.49,368.81,640.49,368.81z M641.91,422.95c-0.49,0.31-1.05,0.44-1.68,0.39
			c-0.8-0.06-1.39-1.35-1.76-3.87c-0.37-2.52-0.76-7.31-1.16-14.36c-0.23-4.64-0.43-9.19-0.6-13.63c-0.17-4.44-0.29-7.87-0.34-10.28
			c0-0.63,0.1-1.1,0.3-1.42c0.2-0.31,0.59-0.47,1.16-0.47c1.32,0,2.15,0.54,2.49,1.63c0.34,1.09,0.52,3.18,0.52,6.28l-0.09,10.15
			c0,5.79,0.17,10.44,0.52,13.93c0,0.17,0.26,2.01,0.77,5.5c0.4,2.41,0.6,4.01,0.6,4.82C642.64,422.19,642.39,422.63,641.91,422.95z
			"/>
		<path class="st2" d="M677.85,405.62c-1.18,1.78-2.36,3.38-3.57,4.82c-2.98,3.61-5.66,6.39-8.04,8.34
			c-2.38,1.95-4.86,2.92-7.44,2.92c-2.18,0-3.97-0.95-5.38-2.84c-1.41-1.89-2.11-4.07-2.11-6.54c0-3.67,0.97-8.31,2.92-13.93
			c1.95-5.62,4.41-10.49,7.4-14.62c2.98-4.13,5.96-6.19,8.94-6.19c1.26,0,2.35,0.46,3.27,1.38c0.52,0.52,1,1.2,1.46,2.06
			s0.69,1.63,0.69,2.32c0,0.98-0.13,2.11-0.39,3.4c-0.26,1.29-0.53,1.94-0.82,1.94c-0.57,0-0.95-0.31-1.12-0.95
			c-0.17-0.63-0.29-1.43-0.34-2.41c-0.17-1.49-0.34-2.48-0.52-2.97c-0.17-0.49-0.43-0.73-0.77-0.73c-2.7,0-5.3,1.88-7.83,5.63
			c-2.52,3.76-4.59,8.11-6.19,13.07c-1.61,4.96-2.41,8.79-2.41,11.48c0,3.78,1.26,5.68,3.78,5.68c1.83,0,3.51-0.46,5.03-1.38
			c1.52-0.92,3.11-2.21,4.77-3.87c3.1-3.15,5.5-5.88,7.22-8.17c0.11-0.17,0.44-0.62,0.99-1.33c0.54-0.72,0.93-1.08,1.16-1.08
			c0.69,0,1.03,0.26,1.03,0.77C679.62,402.78,679.03,403.84,677.85,405.62z"/>
		<path class="st2" d="M721.75,417.1c0.4,0.43,0.6,0.79,0.6,1.08c0,0.69-0.29,1.48-0.86,2.36c-0.57,0.89-1.15,1.33-1.72,1.33
			c-0.98,0-1.72-0.6-2.24-1.81c-0.52-1.2-0.77-2.61-0.77-4.21c0-1.38,0.09-5.5,0.26-12.38l0.09-3.27c0-1.32-0.34-2.26-1.03-2.84
			c-2.58,4.36-4.99,8.14-7.22,11.35c-2.24,3.21-5.07,6.23-8.51,9.07c-3.44,2.84-7.05,4.26-10.84,4.26c-1.83,0-3.25-0.57-4.26-1.72
			c-1-1.15-1.5-2.64-1.5-4.47c0-2.29,1.03-5.43,3.1-9.42c2.06-3.98,4.7-8.03,7.91-12.13c3.21-4.1,6.42-7.47,9.63-10.11
			c2.12-1.72,3.81-2.88,5.07-3.48c1.26-0.6,2.38-0.9,3.35-0.9c0.92,0,1.86,0.29,2.84,0.86c0.97,0.57,1.81,1.38,2.49,2.41
			c0.69,1.03,1.03,2.21,1.03,3.53c0,1.78-0.49,3.47-1.46,5.07l1.46-0.43c0.63,0,1,0.77,1.12,2.32c0.06,0.92,0.13,2.78,0.21,5.59
			c0.09,2.81,0.16,5.13,0.22,6.97c0.06,1.89,0.11,3.73,0.17,5.5c0.06,1.78,0.11,3.18,0.17,4.21
			C721.12,416.25,721.35,416.67,721.75,417.1z M699.65,413.96c2.87-2.29,5.43-5.03,7.7-8.21c2.26-3.18,4.77-7.09,7.52-11.74
			c0.69-1.72,1.03-3.58,1.03-5.59c0-1.2-0.36-2.25-1.08-3.14c-0.72-0.89-1.68-1.33-2.88-1.33c-1.43,0-3.27,0.98-5.5,2.92
			c-2.58,2.18-5.3,5.09-8.17,8.73c-2.87,3.64-5.25,7.24-7.14,10.79c-1.89,3.56-2.84,6.36-2.84,8.43c0,1.72,0.8,2.58,2.41,2.58
			C693.8,417.4,696.79,416.25,699.65,413.96z"/>
		<path class="st2" d="M759.59,423.72c-0.57,0.49-1.26,0.73-2.06,0.73c-0.57,0-1.06-0.13-1.46-0.39c-0.4-0.26-0.6-0.62-0.6-1.08
			c0-2.35,0.17-5.99,0.52-10.92c0.34-5.27,0.52-9.66,0.52-13.16c0-3.38-0.1-6.15-0.3-8.3c-0.2-2.15-0.67-3.22-1.42-3.22
			c-1.95,0-4.08,2.42-6.41,7.27c-2.32,4.85-4.97,11.22-7.96,19.13l-1.29,3.44c-0.23,0.57-0.62,1.03-1.16,1.38s-1.1,0.52-1.68,0.52
			c-0.69,0-1.15-0.06-1.38-0.17c-0.23-0.11-0.37-0.46-0.43-1.03l-0.69-7.05l-1.29-12.38c-0.4-4.93-0.89-9.23-1.46-12.9
			c-0.17-0.86-0.26-1.52-0.26-1.98c0-0.86,0.37-1.56,1.12-2.11c0.74-0.54,1.6-0.82,2.58-0.82c0.57,0,0.99,1.38,1.25,4.13
			s0.53,7.2,0.82,13.33l0.34,4.56c0.46,5.79,0.72,9.46,0.77,11.01c0.17-0.34,0.33-0.73,0.47-1.16c0.14-0.43,0.33-0.9,0.56-1.42
			c3.1-8.03,6-14.72,8.73-20.08c2.72-5.36,5.34-8.04,7.87-8.04c1.78,0,3,1.51,3.66,4.52c0.66,3.01,1.08,6.87,1.25,11.57
			c0.17,5.22,0.26,12.84,0.26,22.88C760.45,422.65,760.17,423.23,759.59,423.72z"/>
		<path class="st2" d="M806.81,417.1c0.4,0.43,0.6,0.79,0.6,1.08c0,0.69-0.29,1.48-0.86,2.36c-0.57,0.89-1.15,1.33-1.72,1.33
			c-0.98,0-1.72-0.6-2.24-1.81c-0.52-1.2-0.77-2.61-0.77-4.21c0-1.38,0.09-5.5,0.26-12.38l0.09-3.27c0-1.32-0.34-2.26-1.03-2.84
			c-2.58,4.36-4.99,8.14-7.22,11.35c-2.24,3.21-5.07,6.23-8.51,9.07c-3.44,2.84-7.05,4.26-10.84,4.26c-1.83,0-3.25-0.57-4.26-1.72
			c-1-1.15-1.5-2.64-1.5-4.47c0-2.29,1.03-5.43,3.1-9.42c2.06-3.98,4.7-8.03,7.91-12.13c3.21-4.1,6.42-7.47,9.63-10.11
			c2.12-1.72,3.81-2.88,5.07-3.48c1.26-0.6,2.38-0.9,3.35-0.9c0.92,0,1.86,0.29,2.84,0.86c0.97,0.57,1.81,1.38,2.49,2.41
			c0.69,1.03,1.03,2.21,1.03,3.53c0,1.78-0.49,3.47-1.46,5.07l1.46-0.43c0.63,0,1,0.77,1.12,2.32c0.06,0.92,0.13,2.78,0.21,5.59
			c0.09,2.81,0.16,5.13,0.22,6.97c0.06,1.89,0.11,3.73,0.17,5.5c0.06,1.78,0.11,3.18,0.17,4.21
			C806.18,416.25,806.41,416.67,806.81,417.1z M784.71,413.96c2.87-2.29,5.43-5.03,7.7-8.21c2.26-3.18,4.77-7.09,7.52-11.74
			c0.69-1.72,1.03-3.58,1.03-5.59c0-1.2-0.36-2.25-1.08-3.14c-0.72-0.89-1.68-1.33-2.88-1.33c-1.43,0-3.27,0.98-5.5,2.92
			c-2.58,2.18-5.3,5.09-8.17,8.73c-2.87,3.64-5.25,7.24-7.14,10.79c-1.89,3.56-2.84,6.36-2.84,8.43c0,1.72,0.8,2.58,2.41,2.58
			C778.86,417.4,781.84,416.25,784.71,413.96z"/>
	</g>
</g>
</svg>
